<?xml version="1.0" standalone="no"?><!-- Generator: Gravit.io --><svg xmlns="http://www.w3.org/2000/svg" xmlns:xlink="http://www.w3.org/1999/xlink" style="isolation:isolate" viewBox="0 0 256 256" width="256" height="256"><defs><clipPath id="_clipPath_4zXtY6ZlfFeFADjBjA1eHZypL6FdPTbq"><rect width="256" height="256"/></clipPath></defs><g clip-path="url(#_clipPath_4zXtY6ZlfFeFADjBjA1eHZypL6FdPTbq)"><path d=" M 155.201 113.102 C 153.795 114.969 151.195 115.654 148.882 115.263 C 146.57 114.872 144.52 113.548 142.757 112.029 C 140.975 110.517 139.392 108.763 137.582 107.286 C 134.345 104.646 130.317 102.89 126.146 102.873 C 121.975 102.855 118.202 104.752 115.824 108.179 C 118.429 107.117 121.627 107.418 123.858 109.145 C 126.108 110.864 127.23 113.994 126.392 116.684 C 125.562 119.392 122.73 121.372 119.92 121.05 C 117.549 120.774 115.612 119.112 113.852 117.503 C 111.034 114.961 108.234 112.41 105.415 109.868 C 102.511 107.232 99.492 104.537 95.735 103.386 C 91.998 102.227 87.34 103.331 85.263 106.645 C 86.793 105.494 89.152 105.644 90.555 106.951 C 91.94 108.266 92.222 110.606 91.159 112.208 C 90.355 113.407 88.977 114.115 87.547 114.363 C 86.126 114.584 84.677 114.399 83.26 114.089 C 80.008 113.372 76.877 112.093 74.101 110.281 C 75.05 113.907 77.75 116.921 81.03 118.727 C 84.31 120.533 88.113 121.201 91.864 121.165 C 94.166 121.142 96.48 120.85 98.794 120.998 C 101.099 121.128 103.466 121.737 105.192 123.273 C 106.937 124.801 107.857 127.383 106.961 129.504 C 106.344 130.971 104.87 132.053 103.29 132.213 C 101.71 132.374 99.807 131.865 98.889 130.559 C 99.266 133.893 100.943 137.081 103.47 139.27 C 106.024 141.469 109.401 142.658 112.76 142.535 C 115.649 142.446 118.424 141.417 121.271 140.841 C 124.118 140.265 127.267 140.213 129.673 141.84 C 130.784 142.595 131.699 143.747 131.924 145.078 C 132.166 146.401 131.629 147.898 130.467 148.597 C 129.361 149.272 127.92 149.105 126.696 148.686 C 125.465 148.249 124.342 147.565 123.089 147.182 C 121.055 146.577 118.776 146.898 116.977 148.038 C 115.195 149.17 114.251 150.939 113.932 153.021 C 117.235 150.521 122.09 152.059 125.311 154.663 C 128.513 157.275 130.949 160.827 134.503 162.95 C 138.523 165.37 143.533 165.539 148.05 164.122 C 143.696 161.544 140.255 157.718 138.126 153.037 C 135.741 147.808 135.269 141.908 136.792 136.367 L 136.822 136.287 C 136.856 136.118 136.917 135.958 136.969 135.781 C 136.989 135.727 137.001 135.656 137.021 135.603 C 137.072 135.47 137.104 135.345 137.154 135.213 C 137.184 135.133 137.214 135.053 137.236 134.955 C 137.277 134.849 137.309 134.724 137.349 134.618 C 137.371 134.52 137.42 134.432 137.442 134.334 C 137.472 134.255 137.494 134.157 137.542 134.069 L 137.552 134.042 L 137.572 133.989 C 137.673 133.723 137.764 133.484 137.873 133.237 L 137.933 133.078 C 139.907 128.42 143.262 124.48 147.546 121.79 C 147.601 121.766 147.63 121.731 147.685 121.706 C 147.86 121.605 148.045 121.478 148.22 121.377 C 148.34 121.301 148.468 121.243 148.588 121.167 C 148.726 121.083 148.873 121.017 149.011 120.933 C 149.168 120.84 149.332 120.766 149.489 120.674 L 149.544 120.649 C 153.06 118.868 157.029 117.897 161.153 117.958 L 162.932 117.994 L 162.938 118.057 C 164.014 118.146 165.104 118.316 166.182 118.558 C 163.967 113.343 160.142 108.808 155.054 106.362 C 156.89 107.849 156.626 111.227 155.201 113.102 L 155.201 113.102 Z  M 112.284 97.524 C 110.613 96.161 109.196 94.53 107.431 93.298 C 103.313 90.415 97.908 90.249 93.503 92.65 C 95.397 92.061 97.46 93.072 98.886 94.478 C 100.304 95.867 101.32 97.635 102.709 99.058 C 104.711 101.109 107.51 102.383 110.38 102.545 C 113.251 102.707 116.167 101.747 118.39 99.931 C 116.228 100.023 113.937 98.895 112.284 97.524 Z  M 162.835 121.694 C 162.332 127.469 159.139 132.669 154.216 135.729 C 152.208 136.979 150.669 138.857 149.835 141.07 C 148.795 143.779 148.896 146.793 150.115 149.425 C 151.329 152.073 153.512 154.086 156.258 155.098 C 161.682 157.078 167.705 154.445 169.935 149.119 C 170.881 146.865 171.043 144.435 170.41 142.098 C 168.853 136.388 169.996 130.411 173.438 125.822 C 171.903 124.663 170.179 123.72 168.293 123.005 C 166.47 122.283 164.653 121.867 162.835 121.694 L 162.835 121.694 Z  M 178.758 131.622 L 178.538 131.281 L 178.343 130.994 C 178.326 130.957 178.283 130.911 178.267 130.874 C 177.622 129.931 176.912 129.039 176.119 128.206 C 173.478 131.884 172.648 136.597 173.866 141.115 C 174.721 144.223 174.501 147.528 173.241 150.494 C 171.826 153.861 169.183 156.563 165.848 158.051 L 165.701 158.117 C 162.278 159.614 158.479 159.738 154.997 158.463 C 151.361 157.152 148.406 154.433 146.799 150.918 C 145.178 147.411 145.04 143.399 146.417 139.789 C 147.524 136.833 149.58 134.327 152.264 132.664 C 156.132 130.255 158.677 126.201 159.168 121.671 C 155.693 121.934 152.334 123.037 149.38 124.886 C 149.362 124.894 149.325 124.911 149.315 124.937 C 149.279 124.954 149.25 124.989 149.214 125.005 C 145.899 127.136 143.194 130.181 141.488 133.879 L 141.478 133.905 C 141.409 134.047 141.341 134.188 141.28 134.347 L 141.22 134.506 C 141.179 134.613 141.139 134.719 141.081 134.833 L 140.99 135.072 C 140.96 135.152 140.911 135.24 140.889 135.338 C 140.859 135.418 140.847 135.489 140.809 135.55 L 140.698 135.843 L 140.627 136.029 C 140.587 136.135 140.547 136.241 140.515 136.366 C 140.494 136.419 140.484 136.445 140.482 136.49 C 140.432 136.623 140.408 136.766 140.358 136.899 C 140.366 136.917 140.348 136.925 140.356 136.944 C 137.392 147.243 142.659 158.31 152.678 162.414 L 152.705 162.424 C 152.872 162.503 153.032 162.563 153.209 162.616 L 153.714 162.807 L 153.794 162.837 C 153.945 162.879 154.078 162.93 154.229 162.972 L 154.255 162.982 C 164.373 166.227 175.377 161.407 179.876 151.826 C 179.876 151.826 179.894 151.818 179.886 151.799 C 179.945 151.685 179.995 151.552 180.064 151.411 C 180.092 151.376 180.094 151.331 180.122 151.296 C 180.153 151.217 180.201 151.129 180.223 151.031 C 180.253 150.951 180.284 150.871 180.332 150.783 L 180.342 150.757 L 180.524 150.279 L 180.775 149.615 L 180.816 149.508 C 182.803 143.548 182.008 137.033 178.832 131.787 C 178.834 131.742 178.783 131.677 178.758 131.622 L 178.758 131.622 Z " fill="rgb(240,36,36)"/></g></svg>