<?xml version="1.0" standalone="no"?><!-- Generator: Gravit.io --><svg xmlns="http://www.w3.org/2000/svg" xmlns:xlink="http://www.w3.org/1999/xlink" style="isolation:isolate" viewBox="0 0 256 256" width="256" height="256"><defs><clipPath id="_clipPath_3VMZRCQZN1QB4KMYK0Xp6lqneKT2roF9"><rect width="256" height="256"/></clipPath></defs><g clip-path="url(#_clipPath_3VMZRCQZN1QB4KMYK0Xp6lqneKT2roF9)"><path d=" M 117.876 41.836 C 114.017 39.708 109.449 39.619 104.925 41.526 C 100.623 43.344 96.898 46.848 94.414 51.328 C 91.93 55.807 90.999 60.819 91.708 65.432 C 93.261 75.721 90.733 85.656 90.688 85.745 L 90.245 87.342 L 90.733 87.342 C 92.329 87.342 93.837 87.608 95.256 88.14 C 96.144 87.209 102.841 80.467 111.8 76.564 C 112.864 76.121 113.929 75.544 114.949 74.879 C 114.904 74.302 114.86 73.77 114.86 73.193 C 114.86 70.887 115.259 68.714 116.013 66.674 C 114.284 68.936 112.066 70.665 109.671 71.73 C 106.699 73.016 103.728 72.972 101.377 71.685 C 99.026 70.355 97.43 67.915 96.898 64.678 C 96.365 61.218 97.075 57.448 99.026 53.989 C 100.934 50.529 103.772 47.868 106.965 46.493 C 108.429 45.872 109.893 45.562 111.268 45.562 C 112.687 45.562 114.062 45.872 115.259 46.538 C 117.61 47.868 119.207 50.308 119.739 53.545 C 120.138 56.162 119.828 58.956 118.807 61.662 C 120.537 59.444 122.71 57.626 125.239 56.34 C 125.283 55.098 125.194 53.9 125.017 52.703 C 124.263 47.78 121.735 43.965 117.876 41.836 L 117.876 41.836 Z  M 97.474 75.411 C 97.918 75.721 98.361 76.032 98.849 76.298 C 99.337 76.564 99.825 76.786 100.357 77.008 C 99.272 77.763 98.207 78.547 97.164 79.358 C 97.297 78.161 97.43 76.83 97.474 75.411 Z  M 133.843 60.464 C 126.835 60.464 121.114 66.186 121.114 73.193 C 121.114 79.181 125.239 84.193 130.783 85.523 L 146.173 70.133 C 144.842 64.589 139.83 60.464 133.843 60.464 Z  M 98.76 100.647 C 98.76 96.256 95.168 92.664 90.777 92.664 C 86.386 92.664 82.794 96.256 82.794 100.647 L 82.794 133.734 C 82.802 138.753 85.828 143.274 90.465 145.195 C 95.102 147.116 100.439 146.059 103.994 142.516 L 109.893 136.617 L 109.893 124.509 C 109.893 120.34 110.469 116.215 111.622 112.312 L 98.805 125.13 L 98.805 100.647 L 98.76 100.647 L 98.76 100.647 Z  M 193.408 41.748 C 191.92 40.242 189.892 39.394 187.775 39.394 C 185.658 39.394 183.63 40.242 182.142 41.748 L 126.392 97.498 C 119.216 104.635 115.192 114.344 115.215 124.464 L 115.215 149.257 C 115.215 149.967 114.949 150.632 114.417 151.12 L 62.569 202.968 C 59.464 206.072 59.464 211.128 62.569 214.277 C 65.674 217.382 70.73 217.382 73.879 214.277 L 131.98 156.176 C 132.734 155.422 133.887 155.2 134.863 155.6 C 135.85 156.009 136.497 156.97 136.504 158.039 L 136.504 183.009 C 136.504 183.719 136.238 184.384 135.706 184.872 L 119.34 201.238 C 116.235 204.343 116.235 209.399 119.34 212.548 C 122.444 215.652 127.5 215.652 130.649 212.548 L 146.394 196.803 C 150.297 192.9 152.426 187.711 152.426 182.211 L 152.426 95.059 C 152.426 94.349 152.692 93.684 153.225 93.196 L 193.408 53.013 C 194.913 51.525 195.76 49.497 195.76 47.38 C 195.76 45.264 194.913 43.236 193.408 41.748 L 193.408 41.748 Z " fill="rgb(76,56,79)"/></g></svg>