<?xml version="1.0" standalone="no"?><!-- Generator: Gravit.io --><svg xmlns="http://www.w3.org/2000/svg" xmlns:xlink="http://www.w3.org/1999/xlink" style="isolation:isolate" viewBox="0 0 256 256" width="256" height="256"><defs><clipPath id="_clipPath_ZHHjTVS2NmzDt19GmVIaOQOrTiI03cpO"><rect width="256" height="256"/></clipPath></defs><g clip-path="url(#_clipPath_ZHHjTVS2NmzDt19GmVIaOQOrTiI03cpO)"><path d=" M 155.707 29.083 C 154.301 30.95 151.701 31.635 149.388 31.244 C 147.076 30.853 145.026 29.529 143.263 28.009 C 141.481 26.498 139.898 24.743 138.088 23.267 C 134.851 20.626 130.823 18.871 126.652 18.853 C 122.481 18.836 118.708 20.732 116.33 24.16 C 118.935 23.097 122.133 23.398 124.364 25.126 C 126.614 26.845 127.736 29.975 126.898 32.665 C 126.068 35.373 123.236 37.352 120.426 37.031 C 118.055 36.755 116.118 35.093 114.358 33.484 C 111.54 30.941 108.74 28.391 105.921 25.848 C 103.017 23.212 99.998 20.518 96.241 19.367 C 92.503 18.207 87.846 19.312 85.769 22.626 C 87.299 21.475 89.658 21.625 91.061 22.932 C 92.446 24.247 92.728 26.587 91.665 28.189 C 90.861 29.388 89.483 30.096 88.053 30.343 C 86.632 30.564 85.183 30.379 83.766 30.07 C 80.514 29.353 77.383 28.074 74.607 26.262 C 75.556 29.888 78.256 32.902 81.536 34.708 C 84.816 36.514 88.619 37.182 92.37 37.146 C 94.672 37.123 96.986 36.831 99.299 36.979 C 101.605 37.109 103.972 37.718 105.698 39.254 C 107.443 40.781 108.363 43.363 107.467 45.485 C 106.85 46.952 105.376 48.034 103.796 48.194 C 102.216 48.355 100.313 47.845 99.395 46.54 C 99.772 49.873 101.449 53.061 103.976 55.25 C 106.53 57.449 109.907 58.639 113.265 58.515 C 116.155 58.426 118.93 57.398 121.777 56.821 C 124.624 56.245 127.773 56.194 130.179 57.82 C 131.29 58.576 132.205 59.728 132.429 61.059 C 132.672 62.382 132.135 63.879 130.973 64.578 C 129.867 65.252 128.426 65.086 127.202 64.667 C 125.97 64.23 124.848 63.546 123.595 63.162 C 121.561 62.558 119.282 62.879 117.483 64.019 C 115.701 65.151 114.757 66.92 114.438 69.002 C 117.741 66.502 122.596 68.04 125.817 70.643 C 129.019 73.256 131.455 76.807 135.009 78.93 C 139.029 81.351 144.039 81.519 148.556 80.103 C 144.202 77.525 140.761 73.698 138.632 69.017 C 136.247 63.789 135.775 57.889 137.298 52.347 L 137.328 52.268 C 137.362 52.098 137.423 51.939 137.475 51.761 C 137.495 51.708 137.507 51.637 137.527 51.584 C 137.577 51.451 137.61 51.326 137.66 51.193 C 137.69 51.114 137.72 51.034 137.742 50.936 C 137.783 50.83 137.815 50.705 137.855 50.599 C 137.877 50.501 137.925 50.413 137.947 50.315 C 137.978 50.235 138 50.137 138.048 50.049 L 138.058 50.023 L 138.078 49.97 C 138.179 49.704 138.27 49.465 138.379 49.218 L 138.439 49.058 C 140.413 44.401 143.768 40.461 148.052 37.771 C 148.107 37.746 148.136 37.711 148.191 37.687 C 148.366 37.586 148.551 37.459 148.726 37.358 C 148.846 37.282 148.974 37.224 149.094 37.148 C 149.232 37.064 149.379 36.998 149.517 36.914 C 149.673 36.821 149.838 36.747 149.995 36.654 L 150.05 36.63 C 153.566 34.849 157.535 33.878 161.659 33.938 L 163.438 33.975 L 163.444 34.038 C 164.52 34.127 165.61 34.297 166.688 34.539 C 164.473 29.324 160.648 24.789 155.56 22.343 C 157.396 23.829 157.132 27.208 155.707 29.083 L 155.707 29.083 Z  M 112.79 13.505 C 111.119 12.142 109.702 10.511 107.936 9.279 C 103.819 6.396 98.413 6.229 94.009 8.63 C 95.903 8.042 97.966 9.052 99.392 10.459 C 100.81 11.848 101.826 13.615 103.215 15.039 C 105.217 17.089 108.016 18.363 110.886 18.525 C 113.757 18.687 116.673 17.727 118.896 15.912 C 116.734 16.003 114.442 14.876 112.79 13.505 Z  M 163.341 37.675 C 162.838 43.45 159.645 48.65 154.722 51.709 C 152.714 52.96 151.175 54.838 150.341 57.051 C 149.301 59.759 149.402 62.774 150.621 65.406 C 151.834 68.054 154.018 70.067 156.764 71.078 C 162.188 73.059 168.211 70.426 170.44 65.099 C 171.387 62.845 171.549 60.415 170.916 58.079 C 169.359 52.369 170.502 46.392 173.944 41.803 C 172.409 40.643 170.685 39.701 168.799 38.986 C 166.976 38.264 165.159 37.848 163.341 37.675 L 163.341 37.675 Z  M 179.264 47.603 L 179.044 47.261 L 178.849 46.975 C 178.832 46.938 178.789 46.891 178.773 46.855 C 178.128 45.911 177.418 45.019 176.625 44.187 C 173.984 47.864 173.154 52.578 174.372 57.096 C 175.227 60.203 175.007 63.509 173.747 66.475 C 172.332 69.842 169.689 72.543 166.354 74.032 L 166.207 74.098 C 162.784 75.594 158.985 75.718 155.503 74.443 C 151.867 73.133 148.912 70.413 147.305 66.898 C 145.684 63.392 145.546 59.379 146.923 55.77 C 148.03 52.813 150.086 50.307 152.77 48.645 C 156.638 46.235 159.183 42.182 159.674 37.651 C 156.199 37.914 152.84 39.018 149.886 40.867 C 149.868 40.875 149.831 40.891 149.821 40.918 C 149.784 40.935 149.756 40.969 149.719 40.986 C 146.405 43.116 143.7 46.162 141.994 49.86 L 141.984 49.886 C 141.915 50.027 141.847 50.168 141.786 50.328 L 141.726 50.487 C 141.685 50.593 141.645 50.7 141.586 50.814 L 141.496 51.053 C 141.466 51.133 141.417 51.221 141.395 51.319 C 141.365 51.398 141.353 51.47 141.314 51.531 L 141.204 51.823 L 141.133 52.009 C 141.093 52.116 141.053 52.222 141.02 52.346 C 141 52.4 140.99 52.426 140.988 52.471 C 140.938 52.604 140.914 52.747 140.864 52.879 C 140.872 52.898 140.854 52.906 140.862 52.924 C 137.898 63.224 143.165 74.291 153.184 78.395 L 153.211 78.405 C 153.378 78.484 153.538 78.544 153.715 78.596 L 154.22 78.788 L 154.3 78.818 C 154.451 78.86 154.584 78.91 154.735 78.953 L 154.761 78.963 C 164.879 82.207 175.882 77.387 180.382 67.807 C 180.382 67.807 180.4 67.798 180.392 67.78 C 180.451 67.665 180.501 67.533 180.57 67.392 C 180.598 67.357 180.6 67.312 180.628 67.277 C 180.659 67.197 180.707 67.109 180.729 67.011 C 180.759 66.932 180.79 66.852 180.838 66.764 L 180.848 66.738 L 181.03 66.259 L 181.281 65.595 L 181.322 65.489 C 183.309 59.528 182.514 53.013 179.338 47.768 C 179.34 47.723 179.289 47.658 179.264 47.603 L 179.264 47.603 Z " fill="rgb(240,36,36)"/><path d=" M 118.139 78.836 C 114.28 76.708 109.712 76.619 105.188 78.526 C 100.886 80.344 97.16 83.848 94.677 88.328 C 92.193 92.807 91.262 97.819 91.971 102.432 C 93.524 112.721 90.995 122.656 90.951 122.745 L 90.508 124.342 L 90.995 124.342 C 92.592 124.342 94.1 124.608 95.519 125.14 C 96.406 124.209 103.104 117.467 112.063 113.564 C 113.127 113.121 114.192 112.544 115.212 111.879 C 115.167 111.302 115.123 110.77 115.123 110.193 C 115.123 107.887 115.522 105.714 116.276 103.674 C 114.546 105.936 112.329 107.665 109.934 108.73 C 106.962 110.016 103.991 109.972 101.64 108.685 C 99.289 107.355 97.693 104.915 97.16 101.678 C 96.628 98.218 97.338 94.448 99.289 90.989 C 101.196 87.529 104.035 84.868 107.228 83.493 C 108.692 82.872 110.156 82.562 111.531 82.562 C 112.95 82.562 114.325 82.872 115.522 83.538 C 117.873 84.868 119.47 87.308 120.002 90.545 C 120.401 93.162 120.09 95.956 119.07 98.662 C 120.8 96.444 122.973 94.626 125.501 93.34 C 125.546 92.098 125.457 90.9 125.28 89.703 C 124.526 84.78 121.998 80.965 118.139 78.836 L 118.139 78.836 Z  M 97.737 112.411 C 98.181 112.721 98.624 113.032 99.112 113.298 C 99.6 113.564 100.088 113.786 100.62 114.008 C 99.535 114.763 98.47 115.547 97.427 116.358 C 97.56 115.161 97.693 113.83 97.737 112.411 Z  M 134.106 97.464 C 127.098 97.464 121.377 103.186 121.377 110.193 C 121.377 116.181 125.501 121.193 131.045 122.523 L 146.436 107.133 C 145.105 101.589 140.093 97.464 134.106 97.464 Z  M 99.023 137.647 C 99.023 133.256 95.431 129.664 91.04 129.664 C 86.649 129.664 83.056 133.256 83.056 137.647 L 83.056 170.734 C 83.065 175.753 86.091 180.274 90.728 182.195 C 95.365 184.116 100.702 183.059 104.257 179.516 L 110.156 173.617 L 110.156 161.509 C 110.156 157.34 110.732 153.215 111.885 149.312 L 99.068 162.13 L 99.068 137.647 L 99.023 137.647 L 99.023 137.647 Z  M 193.671 78.748 C 192.183 77.242 190.155 76.394 188.038 76.394 C 185.921 76.394 183.893 77.242 182.405 78.748 L 126.655 134.498 C 119.479 141.635 115.455 151.344 115.478 161.464 L 115.478 186.257 C 115.478 186.967 115.212 187.632 114.68 188.12 L 62.832 239.968 C 59.727 243.072 59.727 248.128 62.832 251.277 C 65.937 254.382 70.993 254.382 74.142 251.277 L 132.243 193.176 C 132.997 192.422 134.15 192.2 135.126 192.6 C 136.113 193.009 136.759 193.97 136.767 195.039 L 136.767 220.009 C 136.767 220.719 136.501 221.384 135.969 221.872 L 119.603 238.238 C 116.498 241.343 116.498 246.399 119.603 249.548 C 122.707 252.652 127.763 252.652 130.912 249.548 L 146.657 233.803 C 150.56 229.9 152.689 224.711 152.689 219.211 L 152.689 132.059 C 152.689 131.349 152.955 130.684 153.488 130.196 L 193.671 90.013 C 195.176 88.525 196.022 86.497 196.022 84.38 C 196.022 82.264 195.176 80.236 193.671 78.748 L 193.671 78.748 Z " fill="rgb(76,56,79)"/></g></svg>